# xmcd
#
# Track frame offsets: 
#        150
#        19545
#        35715
#        55143
#        75293
#        95833
#        111910
#        134225
#        150643
#        166605
#        185313
#        204245
#
# Disc length: 2907 seconds
#
# Revision: 4
# Processed by: cddbd v1.4PL0 Copyright (c) Steve Scherf et al.
# Submitted via: ExactAudioCopy v0.90a11
#
DISCID=940b590c
DTITLE=Robert Palmer - Rhythm and Blues
DYEAR=1900
DGENRE=
TTITLE0=True Love
TTITLE1=No Problem
TTITLE2=I Choose You
TTITLE3=Stone Cold
TTITLE4=Sex Appeal
TTITLE5=Work To Make It Work 99
TTITLE6=All The Will In The World
TTITLE7=You're Not The Only One
TTITLE8=Mr. Wise Guy
TTITLE9=Let's Get It On 99
TTITLE10=Tennis
TTITLE11=Twenty Million Things
EXTD=
EXTT0=
EXTT1=
EXTT2=
EXTT3=
EXTT4=
EXTT5=
EXTT6=
EXTT7=
EXTT8=
EXTT9=
EXTT10=
EXTT11=
PLAYORDER=
